<?xml version="1.0" encoding="UTF-8"?>
<svg version="1.1" xmlns="http://www.w3.org/2000/svg" width="48" height="48">
<path d="M0 0 C0.95519531 -0.020625 1.91039062 -0.04125 2.89453125 -0.0625 C11.66373131 -0.11128554 11.66373131 -0.11128554 15.75 3.25 C19.04764817 6.54764817 19.59649536 9.64486071 19.75 14.25 C19.12088255 17.12522272 18.33592125 19.75947385 16.75 22.25 C14.63671875 23.48046875 14.63671875 23.48046875 12.75 24.25 C13.183125 24.90226562 13.61625 25.55453125 14.0625 26.2265625 C19.76479915 35.17600423 19.76479915 35.17600423 18.75 40.25 C16.75 42.25 16.75 42.25 13.8671875 42.27734375 C10.75 41.25 10.75 41.25 8.6328125 38.37890625 C8.05273438 37.20199219 7.47265625 36.02507813 6.875 34.8125 C6.27945312 33.63816406 5.68390625 32.46382812 5.0703125 31.25390625 C3.75 28.25 3.75 28.25 3.75 26.25 C0.78 26.25 -2.19 26.25 -5.25 26.25 C-5.25 25.26 -5.25 24.27 -5.25 23.25 C-1.772701 22.69335728 1.29366624 22.49053653 4.75 23.25 C7.50650497 25.85873357 9.09019494 28.86421824 10.75 32.25 C11.3275 33.405 11.905 34.56 12.5 35.75 C12.9125 36.575 13.325 37.4 13.75 38.25 C14.41 38.58 15.07 38.91 15.75 39.25 C15.23308594 38.27417969 14.71617188 37.29835937 14.18359375 36.29296875 C13.51770467 35.00808418 12.85236872 33.72291285 12.1875 32.4375 C11.67413086 31.47360352 11.67413086 31.47360352 11.15039062 30.49023438 C10.2734977 28.78073605 9.50484383 27.01678706 8.75 25.25 C9.75 22.25 9.75 22.25 12.3125 20.125 C15.26304748 16.64486707 15.49691531 14.78096004 15.23828125 10.33984375 C14.85957347 7.98005432 14.85957347 7.98005432 12.5625 5.75 C5.76210901 2.12312481 -0.33394262 3.25 -8.25 3.25 C-8.25 15.13 -8.25 27.01 -8.25 39.25 C-7.26 38.755 -7.26 38.755 -6.25 38.25 C-5.78248212 35.89400765 -5.78248212 35.89400765 -5.625 33.1875 C-5.51285156 31.80884766 -5.51285156 31.80884766 -5.3984375 30.40234375 C-5.34945313 29.69207031 -5.30046875 28.98179688 -5.25 28.25 C-4.26 28.58 -3.27 28.91 -2.25 29.25 C-2.22287934 30.68739513 -2.20354933 32.12493863 -2.1875 33.5625 C-2.17589844 34.36300781 -2.16429687 35.16351563 -2.15234375 35.98828125 C-2.25 38.25 -2.25 38.25 -3.25 41.25 C-6.125 41.875 -6.125 41.875 -9.25 42.25 C-11.8902154 39.6097846 -11.48802723 37.6950706 -11.50224304 34.10289001 C-11.49505753 33.26327225 -11.48787201 32.42365448 -11.48046875 31.55859375 C-11.48001053 30.69814957 -11.47955231 29.83770538 -11.4790802 28.95118713 C-11.47605705 27.13126243 -11.46816888 25.31134033 -11.45581055 23.49145508 C-11.43755148 20.69538276 -11.43530085 17.89964134 -11.43554688 15.10351562 C-11.4306319 13.33853878 -11.42480367 11.5735642 -11.41796875 9.80859375 C-11.41685593 8.96695175 -11.4157431 8.12530975 -11.41459656 7.25816345 C-11.34057212 -1.72566856 -7.94934712 0.04222761 0 0 Z " fill="#000000" transform="translate(20.25,3.75)"/>
<path d="M0 0 C13.3231441 -0.49344978 13.3231441 -0.49344978 16.421875 1.765625 C18.08275798 4.11717219 18.54430715 5.16434211 18.5 8 C18.5103125 8.66 18.520625 9.32 18.53125 10 C17.72881508 13.02093148 16.51640747 14.16545778 14 16 C9.2805118 16.53387876 4.76525513 16.17649093 0 16 C0 10.72 0 5.44 0 0 Z M3 3 C3 6.63 3 10.26 3 14 C6.69628969 14.21742881 9.45781172 14.20764658 12.9375 12.875 C15.31581277 11.11306632 15.31581277 11.11306632 15.4375 7.9375 C15.28056299 4.88374462 15.28056299 4.88374462 13 3 C10.55987051 2.75712511 10.55987051 2.75712511 7.875 2.875 C6.26625 2.91625 4.6575 2.9575 3 3 Z " fill="#000000" transform="translate(15,9)"/>
</svg>
